<?xml version="1.0" encoding="utf-8"?>
<!-- Generator: Adobe Illustrator 26.0.2, SVG Export Plug-In . SVG Version: 6.00 Build 0)  -->
<svg version="1.1" id="Calque_1" xmlns="http://www.w3.org/2000/svg" xmlns:xlink="http://www.w3.org/1999/xlink" x="0px" y="0px"
	 viewBox="0 0 841.9 595.3" style="enable-background:new 0 0 841.9 595.3;" xml:space="preserve">
<style type="text/css">
	.st0{clip-path:url(#SVGID_00000127017561586796558560000013478351393850740381_);fill:#AAD2E3;}
	.st1{clip-path:url(#SVGID_00000127017561586796558560000013478351393850740381_);fill:#39B0E3;}
	.st2{clip-path:url(#SVGID_00000127017561586796558560000013478351393850740381_);fill:#AEB2B7;}
	.st3{clip-path:url(#SVGID_00000127017561586796558560000013478351393850740381_);fill:#B7B9BF;}
	.st4{clip-path:url(#SVGID_00000127017561586796558560000013478351393850740381_);fill:#004663;}
	.st5{clip-path:url(#SVGID_00000127017561586796558560000013478351393850740381_);fill:#110E09;}
	.st6{clip-path:url(#SVGID_00000127017561586796558560000013478351393850740381_);fill:#F9F9FA;}
	.st7{clip-path:url(#SVGID_00000127017561586796558560000013478351393850740381_);fill:#0C0D0A;}
	.st8{clip-path:url(#SVGID_00000127017561586796558560000013478351393850740381_);fill:#62656A;}
	.st9{clip-path:url(#SVGID_00000127017561586796558560000013478351393850740381_);fill:#606169;}
	.st10{fill:none;}
	.st11{fill:#0072A3;}
	.st12{font-family:'Qatar2022Arabic-Bold';}
	.st13{font-size:93px;}
	.st14{fill:#FFFFFF;}
</style>
<g>
	<defs>
		<rect id="SVGID_1_" x="234.8" y="29.6" width="525.9" height="424.4"/>
	</defs>
	<clipPath id="SVGID_00000085948454762004185220000007973490892337859230_">
		<use xlink:href="#SVGID_1_"  style="overflow:visible;"/>
	</clipPath>
	<path style="clip-path:url(#SVGID_00000085948454762004185220000007973490892337859230_);fill:#AAD2E3;" d="M507.5,402.6
		c-14.3,10.4-29.9,18.5-47.4,20.4c-23.4,2.5-47,3.9-70.1-2.6c-13.2-3.7-25.1-10.2-36.2-18.4c-2.4-1.8-4.8-3.5-7.2-5.3
		c-1.5-1.6-3.1-2.9-5-4c-10.3-8.8-18.5-19.5-26-30.7c-7.3-11-14.8-21.7-24.6-30.6c-2.3-2.1-2.9-4.5-1.9-7.2c1.1-3.1,0-4.9-2.5-6.7
		c-3.9-2.7-4.1-4.3-0.4-6.8c19.4-12.9,27.8-32.9,35.1-53.6c3.8-10.8,7.2-21.8,12.3-32.1c7.2-14.7,18.6-23.4,35.3-23.5
		c17.2-0.1,31.1,6.5,39.9,21.9c6.4,11,8.8,23.2,10.2,35.7c1.2,11,0.5,21.9-0.1,32.8c-0.1,2.2,0,4.4-1.8,6c-3.1,2.2-6.9,2.4-10.3,3.7
		c-10.3,4-12.5,11.2-5.6,19.8c5.5,6.9,12.3,12.1,20.6,15.3c6.1,2.3,6.6,3,5.1,9.7c-2.4,11.4-8.3,20-20.2,22.9
		c-9.7,2.4-17.6-1.2-23.8-8.8c-1.6-1.9-2.8-4.2-4.3-6.2c-1.2-1.5-2.6-2.9-4.6-1.7c-2.1,1.2-1.5,3.2-0.7,4.9
		c3.8,7.5,9.2,13.4,17,16.8c1.8,0.8,3.8,1.2,5.3,2.6c1.2,2.5,2.2,5.1,3.5,7.6c0.5,1,1.2,2.4,2.6,1.5c1.7-1.1,2.5-3.1,2.9-5
		c0.4-1.8-1.4-1.2-2.4-1.5c-1.9-0.6-5.2,1.5-5.6-2.6c0.4-0.3,0.8-0.5,1.3-0.7c2.3-0.5,4.6-0.2,6.9-0.3c8-0.3,14.2-4.3,19.4-9.9
		c1.3-1.3,2.3-2.9,3.3-4.4c4.2-5.9,4.2-5.9,8.1,0c5.3,8,12.2,13.5,22.2,14.3c2.5,0.1,5.1-0.3,7.6,0.5c0.5,0.2,0.8,0.5,1.2,0.9
		c-0.8,3-3.4,1.9-5.3,2.2c-1.1,0.2-2.7-0.1-2.4,1.7c0.3,2,1,4,2.8,5.1c1.7,1,2.2-0.9,2.7-2c1.2-2.5,1.8-5.4,3.6-7.6
		c1.8-1.6,4.1-2.1,6.2-3.1c7.1-3.5,12.4-8.8,15.6-16.1c0.8-1.8,1.2-3.7-0.7-4.9c-2.3-1.4-3.8,0.2-4.8,2c-1.7,3.1-3.7,5.9-6.2,8.3
		c-10.5,10.2-26.6,9.2-35.5-2.5c-4.2-5.5-6.4-11.9-7.1-18.9c-0.3-3.1,1.6-4.4,3.9-5.6c6.7-3.4,12.9-7.5,18.1-13
		c8.6-9.2,6.1-19-5.9-23.1c-2.7-0.9-6.1-0.4-8-3.4c-2.2-18.3-2.2-36.4,2-54.4c1.7-7.4,4.7-14.2,8.5-20.7c6.5-10.7,16.2-16.9,28.5-19
		c5.4-0.9,10.8-1.2,16.3-0.5c12.1,1.6,20.3,8.3,26.5,18.3c7.1,11.6,10.7,24.7,15.3,37.3c3.2,8.9,6.5,17.8,11.1,26.2
		c5.6,10.4,12.7,19.4,22.7,26.1c5.1,3.4,5.2,4.3,0.5,7.9c-2.4,1.8-3,3.6-2.1,6.4c0.9,2.5,0.6,4.9-1.6,6.8
		c-11.8,10.5-20.2,23.7-29.1,36.6c-7.9,11.4-16.5,22.1-27.9,30.2C512.1,399.3,509.7,400.8,507.5,402.6z"/>
	<path style="clip-path:url(#SVGID_00000085948454762004185220000007973490892337859230_);fill:#39B0E3;" d="M513.5,397.3
		c14.5-11.3,24.9-26,35-41.1c6.4-9.6,13.4-18.5,22-26.2c1.8-1.6,2.6-3.3,1.5-5.1c-2.5-4.4-1-7,3.2-8.9c1-0.5,1.7-1.4,3-2.5
		c-22-12.8-31-34.3-38.8-56.6c-4.2-12-7.8-24.3-14.3-35.4c-8.4-14.4-22-20.3-38.6-18.3c-22.7,2.7-33.3,17.2-38.7,37.2
		c-4.1,15.1-5.2,30.6-3.3,46.3c0.4,3.3,0,6.6,0,10c-1.3,1.2-3,1.3-4.6,1.4c-6.5,0.2-13.1-0.3-19.6,0.6c-1.3,0.2-2.6-0.1-3.6-1.1
		c1.4-9.2,2.4-18.5,1.8-27.7c-0.8-10.9-1.3-21.8-4.8-32.3c-5.4-16.4-14.5-29.1-32.2-33.4c-7.5-1.8-15.1-1.9-22.6-0.1
		c-10.9,2.7-17.7,10.1-22.9,19.3c-4.4,7.8-7.1,16.4-10.2,24.9c-3.3,9.2-6.2,18.6-10.2,27.5c-6.8,15.4-16.1,29-31,37.5
		c-0.1,2,1.3,2.3,2.2,2.7c4.2,2,6,4.6,3.5,9.2c-0.8,1.4-0.7,3.1,0.9,4.5c12.5,10.5,20.7,24.5,30,37.6c6.4,9.1,13.6,17.6,21.7,25.2
		c0.2,0.9,0,1.4-1,1c-24.6-17.4-44.5-39.3-62.1-63.4c-9.6-13.2-18.3-26.9-25.9-41.4c-1.3-2.4-1.2-3.5,1.1-5.2
		c17.1-12.3,28.5-29,37.7-47.5c3.6-7.2,7.3-14.4,11-21.7c-3.2-1.7-7-1.1-10.4-3.2c4.7-1.8,8.9-3.5,13.3-5.1c1.7-0.6,4-1.1,4-3.2
		c0-2-2.5-1.6-3.9-2.1c-2.2-0.8-4.4-1.4-6.6-2.1c-0.6-1.1,0.4-1.4,1-1.9c3.9-0.7,7.8-1.6,11.8-2c5-0.4,5.8-3.1,5.1-7.4
		c-1.4-8.9-2.1-17.8-1.8-26.8c0.7-20.5,4.3-40.3,14.6-58.4c2.6-4.6,5.6-9,9.7-13.4c3.5,7.8,7.1,15,11,22
		c6.2,11.2,13.2,21.9,21.3,31.9c2.3,2.8,4.3,3.8,8.3,2.6c33.1-9.8,66.3-11.2,99.5-0.4c4.8,1.6,6.7-0.9,8.9-3.7
		c11.8-14.9,21.2-31.4,29.3-48.6c0.5-1,1-2.1,1.7-3.6c7.6,8.3,12.7,17.6,16.4,27.8c8.2,22.5,9.2,45.7,6.5,69.3
		c-0.5,4.5,1.5,7.7,6.1,8.5c4.7,0.9,9.5,1.5,14.2,2.3c0.7,0.3,1.3,0.8,0.9,1.7c-2.9,0.8-5.8,1.5-8.6,2.4c-1.1,0.4-3,0.2-3,2
		c0,1.4,1.3,2.2,2.6,2.7c4.8,1.8,9.5,3.6,14.6,5.5c-2.8,1.9-5.8,1.5-8.4,2.4c-1.2,0.4-2.3,0.6-1.5,2.2c11.5,22.6,19.7,47.1,40,64.1
		c7.3,6.1,7.1,6.4,2.6,14.9c-16.2,30.6-35.9,58.6-61.3,82.4c-8.4,7.8-17.2,15.1-26.9,21.3C513.4,398.7,513.2,398.2,513.5,397.3z"/>
	<path style="clip-path:url(#SVGID_00000085948454762004185220000007973490892337859230_);fill:#AEB2B7;" d="M300.7,196.6
		c-0.3,0.6-0.7,1.3-1,1.9c-1.2-0.1-2.6,0.4-3.6-1.9C297.9,196.6,299.3,196.6,300.7,196.6z"/>
	<path style="clip-path:url(#SVGID_00000085948454762004185220000007973490892337859230_);fill:#B7B9BF;" d="M564.3,198.4
		c-0.3-0.6-0.6-1.1-0.9-1.7c1.1,0,2.7-0.7,3.1,0.5C566.8,198.3,565.3,198.4,564.3,198.4z"/>
	<path style="clip-path:url(#SVGID_00000085948454762004185220000007973490892337859230_);fill:#004663;" d="M416.6,297.5
		c9.2-1.3,18.5-1.1,27.8-0.9c3.1,0.9,6.4,1.7,9.4,2.8c11.1,4.2,13.6,14.4,5.8,23.3c-5.4,6.2-12.1,10.9-19.6,14.3
		c-2.8,1.3-3.4,2.8-3,5.7c0.8,5.9,2.6,11.4,6,16.1c9.9,13.8,29.3,12.9,38.4-1.7c0.3-0.4,0.5-0.9,0.7-1.3c1.6-3,3-7.3,7.5-5
		c4.8,2.4,2.1,6.2,0.4,9.4c-4.7,8.8-12.3,14.1-21.6,17.2c-0.6,0.4-1.3,0.5-2,0.1l0.1-0.4c-3-0.4-5.9-0.6-8.9,0.1
		c-9.7-0.3-18.3-6.7-25.8-19.4c-6.3,10.1-13.5,18.7-26.3,19.5c-2.6-0.6-5.2-0.6-7.8,0c-0.4,0.1-0.7,0.2-1.1,0.3
		c-0.3,0.4-0.6,0.3-0.9,0c-10.5-2.6-18-9-23-18.4c-1.5-2.9-3.1-6.1,1-8.1c3.7-1.9,5.3,0.9,6.9,3.6c6.5,11.1,15,15.8,25.2,13.8
		c12.8-2.4,20-15.2,20.8-26.8c0.2-2.7-2.1-2.6-3.7-3.2c-9.6-3.5-17.7-9.3-23.6-17.6c-5.9-8.3-3.8-15.5,5.5-19.7
		C408.5,299.3,412.5,298.4,416.6,297.5z"/>
	<path style="clip-path:url(#SVGID_00000085948454762004185220000007973490892337859230_);fill:#110E09;" d="M477.4,290.5
		c0-4.4,1.3-10.7,5.5-16.1c5.2-6.8,12.6-6.8,18-0.2c7.5,9.2,7.5,27.7,0,36.9c-5.5,6.7-12.7,6.6-18-0.2
		C479.4,306.5,477.4,299.8,477.4,290.5z"/>
	<path style="clip-path:url(#SVGID_00000085948454762004185220000007973490892337859230_);fill:#110E09;" d="M379.5,302.4
		c-2.2,8.2-7,13.4-12.6,13.6c-5.6,0.2-10.9-4.9-13.3-13c-2.7-8.8-2.2-17.4,2-25.7c2.3-4.4,5.5-8.1,11.1-8c5.5,0.1,8.6,3.8,11,8.2
		c1.6,3.1,2.9,6.3,2.9,9.9C380.5,292.5,379.6,297.4,379.5,302.4z"/>
	<path style="clip-path:url(#SVGID_00000085948454762004185220000007973490892337859230_);fill:#F9F9FA;" d="M466.4,377.6
		c0.7,0,1.3-0.1,2-0.1c-1.1,2.9-2.2,5.9-3.4,8.8c-1.6,3.9-3.4,3.5-5.2,0.1c-0.1-0.1-0.2-0.3-0.3-0.4c-3.9-6.5-3.6-7.1,3.6-7.5
		C464.3,378.4,465.5,378.5,466.4,377.6z"/>
	<path style="clip-path:url(#SVGID_00000085948454762004185220000007973490892337859230_);fill:#F9F9FA;" d="M395.7,377.5
		c0.3-0.1,0.6-0.1,0.9,0c3.2,2,6.8,0.2,10.1,1.1c0.3,1.8-0.8,3.2-1.6,4.5c-1.2,2-1.5,5.6-4.3,5.3c-2.5-0.2-3-3.6-3.9-5.9
		C396.2,381.1,395.3,379.4,395.7,377.5z"/>
	<path style="clip-path:url(#SVGID_00000085948454762004185220000007973490892337859230_);fill:#0C0D0A;" d="M379.5,302.4
		c-1.8-5.1,0.3-10,1-14.9C381.5,292.5,381.3,297.5,379.5,302.4z"/>
	<path style="clip-path:url(#SVGID_00000085948454762004185220000007973490892337859230_);fill:#62656A;" d="M457.6,377.2
		c3-1.3,5.9-1.2,8.9-0.1C463.5,377.6,460.6,377.7,457.6,377.2z"/>
	<path style="clip-path:url(#SVGID_00000085948454762004185220000007973490892337859230_);fill:#606169;" d="M397.7,377.2
		c2.6-1.3,5.2-1.3,7.8,0C402.9,377.7,400.3,377.6,397.7,377.2z"/>
	<path style="clip-path:url(#SVGID_00000085948454762004185220000007973490892337859230_);fill:#004663;" d="M329.7,178
		c-2.2-20.1-2.3-38.6,8.9-55.3c2-3,3.2-3.3,4.8,0.3c4.7,9.9,10.1,19.4,17.6,27.5c1.1,1.2,1.5,2.1-0.3,3.1
		C349.6,159.9,339.7,167.8,329.7,178z"/>
	<path style="clip-path:url(#SVGID_00000085948454762004185220000007973490892337859230_);fill:#004663;" d="M532.3,159.9
		c-0.4,4.8-0.6,8.8-1,12.7c-0.2,2.2-1.1,3.2-3,1.2c-8.1-8.1-17.5-14.7-27.5-20.4c-1.5-0.8-3.1-1.7-1.1-3.7
		c7.6-7.7,12.3-17.2,16.9-26.8c1.6-3.3,2.6-3.6,4.8-0.4c6,8.9,9.2,18.6,9.9,29.2C531.7,154.9,532.1,157.8,532.3,159.9z"/>
</g>
<rect x="228.3" y="436.6" class="st10" width="504.7" height="103.9"/>
<text transform="matrix(1 0 0 1 228.3295 503.5984)" class="st11 st12 st13">Louvetoo</text>
<path d="M586.4,504.5"/>
<path class="st11" d="M554.9,511.8c0,0,3.9,19.5,37.1,18.9c33.2-0.7,30.9-18.9,30.9-18.9"/>
<path class="st14" d="M366.9,300L366.9,300c-3.4,0-6.1-2.7-6.1-6.1l0,0c0-3.4,2.7-6.1,6.1-6.1h0c3.4,0,6.1,2.7,6.1,6.1l0,0
	C373,297.2,370.2,300,366.9,300z"/>
<path class="st14" d="M490.5,299.9L490.5,299.9c-3.3-0.6-5.5-3.8-4.9-7.1v0c0.6-3.3,3.8-5.5,7.1-4.9l0,0c3.3,0.6,5.5,3.8,4.9,7.1h0
	C497,298.2,493.8,300.5,490.5,299.9z"/>
</svg>
