<?xml version="1.0" encoding="utf-8"?>
<!-- Generator: Adobe Illustrator 26.0.2, SVG Export Plug-In . SVG Version: 6.00 Build 0)  -->
<svg version="1.1" id="Calque_1" xmlns="http://www.w3.org/2000/svg" xmlns:xlink="http://www.w3.org/1999/xlink" x="0px" y="0px"
	 viewBox="0 0 841.9 595.3" style="enable-background:new 0 0 841.9 595.3;" xml:space="preserve">
<style type="text/css">
	
		.st0{clip-path:url(#SVGID_00000025424138101093411090000000985743694694931624_);fill:#AAD2E3;stroke:#000000;stroke-width:2;stroke-miterlimit:10;}
	
		.st1{clip-path:url(#SVGID_00000005260954644219291250000017066163080922441889_);fill:#39B0E3;stroke:#000000;stroke-width:3;stroke-miterlimit:10;}
	.st2{clip-path:url(#SVGID_00000145762515850891508170000006714656074150552960_);fill:#AEB2B7;}
	.st3{clip-path:url(#SVGID_00000162331179297889867170000015398577272136248476_);fill:#B7B9BF;}
	.st4{clip-path:url(#SVGID_00000054246417445648532520000006103684194873928364_);fill:#004663;}
	.st5{clip-path:url(#SVGID_00000109722332589273222570000010024872781267001492_);fill:#110E09;}
	.st6{clip-path:url(#SVGID_00000016048683979237126830000015727029879184412601_);fill:#110E09;}
	.st7{clip-path:url(#SVGID_00000117670710498345492460000017870961834836581278_);fill:#F9F9FA;}
	.st8{clip-path:url(#SVGID_00000129905248223278564580000011947611800245527961_);fill:#F9F9FA;}
	.st9{clip-path:url(#SVGID_00000046341291397954395420000007546446885065430157_);fill:#0C0D0A;}
	.st10{clip-path:url(#SVGID_00000147187978147331414980000016894316427788965781_);fill:#62656A;}
	.st11{clip-path:url(#SVGID_00000123438560660011666340000012172403238449539244_);fill:#606169;}
	.st12{clip-path:url(#SVGID_00000134950461832036006330000014624264856956848540_);fill:#004663;}
	.st13{clip-path:url(#SVGID_00000109746520409955746430000006877399801291699374_);fill:#004663;}
	.st14{fill:none;}
	.st15{enable-background:new    ;}
	.st16{fill:#FFFFFF;}
	.st17{font-family:'Qatar2022Arabic-Bold';}
	.st18{font-size:93px;}
</style>
<g>
	
		<image style="overflow:visible;opacity:0.39;" width="557" height="456" xlink:href="72F5673ADA950253.png"  transform="matrix(1 0 0 1 219 22.3)">
	</image>
	<g>
		<g>
			<g>
				<defs>
					<rect id="SVGID_1_" x="234.8" y="29.6" width="525.9" height="424.4"/>
				</defs>
				<clipPath id="SVGID_00000096762006496372154570000001239329385025556145_">
					<use xlink:href="#SVGID_1_"  style="overflow:visible;"/>
				</clipPath>
			</g>
			<g>
				<defs>
					<rect id="SVGID_00000122701617607834499340000011791311477498564515_" x="234.8" y="29.6" width="525.9" height="424.4"/>
				</defs>
				<clipPath id="SVGID_00000120526754469217909470000002126953730827531152_">
					<use xlink:href="#SVGID_00000122701617607834499340000011791311477498564515_"  style="overflow:visible;"/>
				</clipPath>
			</g>
			<g>
				<defs>
					<rect id="SVGID_00000128445872818875548990000006718922862453066424_" x="234.8" y="29.6" width="525.9" height="424.4"/>
				</defs>
				<clipPath id="SVGID_00000004518095930258477410000002636470410565993644_">
					<use xlink:href="#SVGID_00000128445872818875548990000006718922862453066424_"  style="overflow:visible;"/>
				</clipPath>
			</g>
			<g>
				<defs>
					<rect id="SVGID_00000075844832888783300740000003515555667629182099_" x="234.8" y="29.6" width="525.9" height="424.4"/>
				</defs>
				<clipPath id="SVGID_00000096039513174851842940000008879883936324312962_">
					<use xlink:href="#SVGID_00000075844832888783300740000003515555667629182099_"  style="overflow:visible;"/>
				</clipPath>
			</g>
			<g>
				<defs>
					<rect id="SVGID_00000115482788749258112330000006544098523403838617_" x="234.8" y="29.6" width="525.9" height="424.4"/>
				</defs>
				<clipPath id="SVGID_00000026159587952476810070000000136314657116675732_">
					<use xlink:href="#SVGID_00000115482788749258112330000006544098523403838617_"  style="overflow:visible;"/>
				</clipPath>
			</g>
			<g>
				<defs>
					<rect id="SVGID_00000170976989352787200090000011645042857239434174_" x="234.8" y="29.6" width="525.9" height="424.4"/>
				</defs>
				<clipPath id="SVGID_00000106142869302293193390000013879158433909349553_">
					<use xlink:href="#SVGID_00000170976989352787200090000011645042857239434174_"  style="overflow:visible;"/>
				</clipPath>
			</g>
			<g>
				<defs>
					<rect id="SVGID_00000059299335919209646020000003813872870965533374_" x="234.8" y="29.6" width="525.9" height="424.4"/>
				</defs>
				<clipPath id="SVGID_00000032633238843821790220000014606929183456925601_">
					<use xlink:href="#SVGID_00000059299335919209646020000003813872870965533374_"  style="overflow:visible;"/>
				</clipPath>
			</g>
			<g>
				<defs>
					<rect id="SVGID_00000039114975856767395770000014722383896455692428_" x="234.8" y="29.6" width="525.9" height="424.4"/>
				</defs>
				<clipPath id="SVGID_00000098931277508274972370000006951147640854593690_">
					<use xlink:href="#SVGID_00000039114975856767395770000014722383896455692428_"  style="overflow:visible;"/>
				</clipPath>
			</g>
			<g>
				<defs>
					<rect id="SVGID_00000048496597962941632600000009829650401291717799_" x="234.8" y="29.6" width="525.9" height="424.4"/>
				</defs>
				<clipPath id="SVGID_00000048463265615381986040000012479238565077600929_">
					<use xlink:href="#SVGID_00000048496597962941632600000009829650401291717799_"  style="overflow:visible;"/>
				</clipPath>
			</g>
			<g>
				<defs>
					<rect id="SVGID_00000046340807037287413640000010856916790770998694_" x="234.8" y="29.6" width="525.9" height="424.4"/>
				</defs>
				<clipPath id="SVGID_00000094583161694772692390000012913201989791298225_">
					<use xlink:href="#SVGID_00000046340807037287413640000010856916790770998694_"  style="overflow:visible;"/>
				</clipPath>
			</g>
			<g>
				<defs>
					<rect id="SVGID_00000112596397458933115420000010365627982517386403_" x="234.8" y="29.6" width="525.9" height="424.4"/>
				</defs>
				<clipPath id="SVGID_00000131357324394919825440000013957817937410944388_">
					<use xlink:href="#SVGID_00000112596397458933115420000010365627982517386403_"  style="overflow:visible;"/>
				</clipPath>
			</g>
			<g>
				<defs>
					<rect id="SVGID_00000114054482011494355770000004734978036118764444_" x="234.8" y="29.6" width="525.9" height="424.4"/>
				</defs>
				<clipPath id="SVGID_00000160897758627339468900000017819788815239269552_">
					<use xlink:href="#SVGID_00000114054482011494355770000004734978036118764444_"  style="overflow:visible;"/>
				</clipPath>
			</g>
			<g>
				<defs>
					<rect id="SVGID_00000165936370856127565040000007943698235357809065_" x="234.8" y="29.6" width="525.9" height="424.4"/>
				</defs>
				<clipPath id="SVGID_00000062156795015622208780000004254885389927016861_">
					<use xlink:href="#SVGID_00000165936370856127565040000007943698235357809065_"  style="overflow:visible;"/>
				</clipPath>
			</g>
			<g>
				<defs>
					<rect id="SVGID_00000089557058842085373730000005272338986311776135_" x="234.8" y="29.6" width="525.9" height="424.4"/>
				</defs>
				<clipPath id="SVGID_00000126319391693683846740000004940470088055853200_">
					<use xlink:href="#SVGID_00000089557058842085373730000005272338986311776135_"  style="overflow:visible;"/>
				</clipPath>
			</g>
		</g>
		<g>
			<g>
				<defs>
					<rect id="SVGID_00000139285971459612716150000016970996008449756856_" x="234.8" y="29.6" width="525.9" height="424.4"/>
				</defs>
				<clipPath id="SVGID_00000010311705353129035990000003597998295941169050_">
					<use xlink:href="#SVGID_00000139285971459612716150000016970996008449756856_"  style="overflow:visible;"/>
				</clipPath>
				
					<path style="clip-path:url(#SVGID_00000010311705353129035990000003597998295941169050_);fill:#AAD2E3;stroke:#000000;stroke-width:2;stroke-miterlimit:10;" d="
					M507.5,402.6c-14.3,10.4-29.9,18.5-47.4,20.4c-23.4,2.5-47,3.9-70.1-2.6c-13.2-3.7-25.1-10.2-36.2-18.4
					c-2.4-1.8-4.8-3.5-7.2-5.3c-1.5-1.6-3.1-2.9-5-4c-10.3-8.8-18.5-19.5-26-30.7c-7.3-11-14.8-21.7-24.6-30.6
					c-2.3-2.1-2.9-4.5-1.9-7.2c1.1-3.1,0-4.9-2.5-6.7c-3.9-2.7-4.1-4.3-0.4-6.8c19.4-12.9,27.8-32.9,35.1-53.6
					c3.8-10.8,7.2-21.8,12.3-32.1c7.2-14.7,18.6-23.4,35.3-23.5c17.2-0.1,31.1,6.5,39.9,21.9c6.4,11,8.8,23.2,10.2,35.7
					c1.2,11,0.5,21.9-0.1,32.8c-0.1,2.2,0,4.4-1.8,6c-3.1,2.2-6.9,2.4-10.3,3.7c-10.3,4-12.5,11.2-5.6,19.8
					c5.5,6.9,12.3,12.1,20.6,15.3c6.1,2.3,6.6,3,5.1,9.7c-2.4,11.4-8.3,20-20.2,22.9c-9.7,2.4-17.6-1.2-23.8-8.8
					c-1.6-1.9-2.8-4.2-4.3-6.2c-1.2-1.5-2.6-2.9-4.6-1.7c-2.1,1.2-1.5,3.2-0.7,4.9c3.8,7.5,9.2,13.4,17,16.8
					c1.8,0.8,3.8,1.2,5.3,2.6c1.2,2.5,2.2,5.1,3.5,7.6c0.5,1,1.2,2.4,2.6,1.5c1.7-1.1,2.5-3.1,2.9-5c0.4-1.8-1.4-1.2-2.4-1.5
					c-1.9-0.6-5.2,1.5-5.6-2.6c0.4-0.3,0.8-0.5,1.3-0.7c2.3-0.5,4.6-0.2,6.9-0.3c8-0.3,14.2-4.3,19.4-9.9c1.3-1.3,2.3-2.9,3.3-4.4
					c4.2-5.9,4.2-5.9,8.1,0c5.3,8,12.2,13.5,22.2,14.3c2.5,0.1,5.1-0.3,7.6,0.5c0.5,0.2,0.8,0.5,1.2,0.9c-0.8,3-3.4,1.9-5.3,2.2
					c-1.1,0.2-2.7-0.1-2.4,1.7c0.3,2,1,4,2.8,5.1c1.7,1,2.2-0.9,2.7-2c1.2-2.5,1.8-5.4,3.6-7.6c1.8-1.6,4.1-2.1,6.2-3.1
					c7.1-3.5,12.4-8.8,15.6-16.1c0.8-1.8,1.2-3.7-0.7-4.9c-2.3-1.4-3.8,0.2-4.8,2c-1.7,3.1-3.7,5.9-6.2,8.3
					c-10.5,10.2-26.6,9.2-35.5-2.5c-4.2-5.5-6.4-11.9-7.1-18.9c-0.3-3.1,1.6-4.4,3.9-5.6c6.7-3.4,12.9-7.5,18.1-13
					c8.6-9.2,6.1-19-5.9-23.1c-2.7-0.9-6.1-0.4-8-3.4c-2.2-18.3-2.2-36.4,2-54.4c1.7-7.4,4.7-14.2,8.5-20.7
					c6.5-10.7,16.2-16.9,28.5-19c5.4-0.9,10.8-1.2,16.3-0.5c12.1,1.6,20.3,8.3,26.5,18.3c7.1,11.6,10.7,24.7,15.3,37.3
					c3.2,8.9,6.5,17.8,11.1,26.2c5.6,10.4,12.7,19.4,22.7,26.1c5.1,3.4,5.2,4.3,0.5,7.9c-2.4,1.8-3,3.6-2.1,6.4
					c0.9,2.5,0.6,4.9-1.6,6.8c-11.8,10.5-20.2,23.7-29.1,36.6c-7.9,11.4-16.5,22.1-27.9,30.2C512.1,399.3,509.7,400.8,507.5,402.6z"
					/>
			</g>
			<g>
				<defs>
					<rect id="SVGID_00000153685484563321837070000017159413965572527758_" x="234.8" y="29.6" width="525.9" height="424.4"/>
				</defs>
				<clipPath id="SVGID_00000157306093858267436840000014590900768335653305_">
					<use xlink:href="#SVGID_00000153685484563321837070000017159413965572527758_"  style="overflow:visible;"/>
				</clipPath>
				
					<path style="clip-path:url(#SVGID_00000157306093858267436840000014590900768335653305_);fill:#39B0E3;stroke:#000000;stroke-width:3;stroke-miterlimit:10;" d="
					M513.5,397.3c14.5-11.3,24.9-26,35-41.1c6.4-9.6,13.4-18.5,22-26.2c1.8-1.6,2.6-3.3,1.5-5.1c-2.5-4.4-1-7,3.2-8.9
					c1-0.5,1.7-1.4,3-2.5c-22-12.8-31-34.3-38.8-56.6c-4.2-12-7.8-24.3-14.3-35.4c-8.4-14.4-22-20.3-38.6-18.3
					c-22.7,2.7-33.3,17.2-38.7,37.2c-4.1,15.1-5.2,30.6-3.3,46.3c0.4,3.3,0,6.6,0,10c-1.3,1.2-3,1.3-4.6,1.4
					c-6.5,0.2-13.1-0.3-19.6,0.6c-1.3,0.2-2.6-0.1-3.6-1.1c1.4-9.2,2.4-18.5,1.8-27.7c-0.8-10.9-1.3-21.8-4.8-32.3
					c-5.4-16.4-14.5-29.1-32.2-33.4c-7.5-1.8-15.1-1.9-22.6-0.1c-10.9,2.7-17.7,10.1-22.9,19.3c-4.4,7.8-7.1,16.4-10.2,24.9
					c-3.3,9.2-6.2,18.6-10.2,27.5c-6.8,15.4-16.1,29-31,37.5c-0.1,2,1.3,2.3,2.2,2.7c4.2,2,6,4.6,3.5,9.2c-0.8,1.4-0.7,3.1,0.9,4.5
					c12.5,10.5,20.7,24.5,30,37.6c6.4,9.1,13.6,17.6,21.7,25.2c0.2,0.9,0,1.4-1,1c-24.6-17.4-44.5-39.3-62.1-63.4
					c-9.6-13.2-18.3-26.9-25.9-41.4c-1.3-2.4-1.2-3.5,1.1-5.2c17.1-12.3,28.5-29,37.7-47.5c3.6-7.2,7.3-14.4,11-21.7
					c-3.2-1.7-7-1.1-10.4-3.2c4.7-1.8,8.9-3.5,13.3-5.1c1.7-0.6,4-1.1,4-3.2c0-2-2.5-1.6-3.9-2.1c-2.2-0.8-4.4-1.4-6.6-2.1
					c-0.6-1.1,0.4-1.4,1-1.9c3.9-0.7,7.8-1.6,11.8-2c5-0.4,5.8-3.1,5.1-7.4c-1.4-8.9-2.1-17.8-1.8-26.8c0.7-20.5,4.3-40.3,14.6-58.4
					c2.6-4.6,5.6-9,9.7-13.4c3.5,7.8,7.1,15,11,22c6.2,11.2,13.2,21.9,21.3,31.9c2.3,2.8,4.3,3.8,8.3,2.6
					c33.1-9.8,66.3-11.2,99.5-0.4c4.8,1.6,6.7-0.9,8.9-3.7c11.8-14.9,21.2-31.4,29.3-48.6c0.5-1,1-2.1,1.7-3.6
					c7.6,8.3,12.7,17.6,16.4,27.8c8.2,22.5,9.2,45.7,6.5,69.3c-0.5,4.5,1.5,7.7,6.1,8.5c4.7,0.9,9.5,1.5,14.2,2.3
					c0.7,0.3,1.3,0.8,0.9,1.7c-2.9,0.8-5.8,1.5-8.6,2.4c-1.1,0.4-3,0.2-3,2c0,1.4,1.3,2.2,2.6,2.7c4.8,1.8,9.5,3.6,14.6,5.5
					c-2.8,1.9-5.8,1.5-8.4,2.4c-1.2,0.4-2.3,0.6-1.5,2.2c11.5,22.6,19.7,47.1,40,64.1c7.3,6.1,7.1,6.4,2.6,14.9
					c-16.2,30.6-35.9,58.6-61.3,82.4c-8.4,7.8-17.2,15.1-26.9,21.3C513.4,398.7,513.2,398.2,513.5,397.3z"/>
			</g>
			<g>
				<defs>
					<rect id="SVGID_00000008115465193645470700000005497381231624584355_" x="234.8" y="29.6" width="525.9" height="424.4"/>
				</defs>
				<clipPath id="SVGID_00000078730792299675784530000015880603334573810339_">
					<use xlink:href="#SVGID_00000008115465193645470700000005497381231624584355_"  style="overflow:visible;"/>
				</clipPath>
				<path style="clip-path:url(#SVGID_00000078730792299675784530000015880603334573810339_);fill:#AEB2B7;" d="M300.7,196.6
					c-0.3,0.6-0.7,1.3-1,1.9c-1.2-0.1-2.6,0.4-3.6-1.9C297.9,196.6,299.3,196.6,300.7,196.6z"/>
			</g>
			<g>
				<defs>
					<rect id="SVGID_00000071537419237578822890000004839818031621397376_" x="234.8" y="29.6" width="525.9" height="424.4"/>
				</defs>
				<clipPath id="SVGID_00000083777024840708659940000008414723721909456296_">
					<use xlink:href="#SVGID_00000071537419237578822890000004839818031621397376_"  style="overflow:visible;"/>
				</clipPath>
				<path style="clip-path:url(#SVGID_00000083777024840708659940000008414723721909456296_);fill:#B7B9BF;" d="M564.3,198.4
					c-0.3-0.6-0.6-1.1-0.9-1.7c1.1,0,2.7-0.7,3.1,0.5C566.8,198.3,565.3,198.4,564.3,198.4z"/>
			</g>
			<g>
				<defs>
					<rect id="SVGID_00000042704420986528401640000012588412647101122749_" x="234.8" y="29.6" width="525.9" height="424.4"/>
				</defs>
				<clipPath id="SVGID_00000115513266564894204200000013176898535962693557_">
					<use xlink:href="#SVGID_00000042704420986528401640000012588412647101122749_"  style="overflow:visible;"/>
				</clipPath>
				<path style="clip-path:url(#SVGID_00000115513266564894204200000013176898535962693557_);fill:#004663;" d="M416.6,297.5
					c9.2-1.3,18.5-1.1,27.8-0.9c3.1,0.9,6.4,1.7,9.4,2.8c11.1,4.2,13.6,14.4,5.8,23.3c-5.4,6.2-12.1,10.9-19.6,14.3
					c-2.8,1.3-3.4,2.8-3,5.7c0.8,5.9,2.6,11.4,6,16.1c9.9,13.8,29.3,12.9,38.4-1.7c0.3-0.4,0.5-0.9,0.7-1.3c1.6-3,3-7.3,7.5-5
					c4.8,2.4,2.1,6.2,0.4,9.4c-4.7,8.8-12.3,14.1-21.6,17.2c-0.6,0.4-1.3,0.5-2,0.1l0.1-0.4c-3-0.4-5.9-0.6-8.9,0.1
					c-9.7-0.3-18.3-6.7-25.8-19.4c-6.3,10.1-13.5,18.7-26.3,19.5c-2.6-0.6-5.2-0.6-7.8,0c-0.4,0.1-0.7,0.2-1.1,0.3
					c-0.3,0.4-0.6,0.3-0.9,0c-10.5-2.6-18-9-23-18.4c-1.5-2.9-3.1-6.1,1-8.1c3.7-1.9,5.3,0.9,6.9,3.6c6.5,11.1,15,15.8,25.2,13.8
					c12.8-2.4,20-15.2,20.8-26.8c0.2-2.7-2.1-2.6-3.7-3.2c-9.6-3.5-17.7-9.3-23.6-17.6c-5.9-8.3-3.8-15.5,5.5-19.7
					C408.5,299.3,412.5,298.4,416.6,297.5z"/>
			</g>
			<g>
				<defs>
					<rect id="SVGID_00000143589568125883350220000006069088441245125809_" x="234.8" y="29.6" width="525.9" height="424.4"/>
				</defs>
				<clipPath id="SVGID_00000004525524097373568300000011412429147425931956_">
					<use xlink:href="#SVGID_00000143589568125883350220000006069088441245125809_"  style="overflow:visible;"/>
				</clipPath>
				<path style="clip-path:url(#SVGID_00000004525524097373568300000011412429147425931956_);fill:#110E09;" d="M477.4,290.5
					c0-4.4,1.3-10.7,5.5-16.1c5.2-6.8,12.6-6.8,18-0.2c7.5,9.2,7.5,27.7,0,36.9c-5.5,6.7-12.7,6.6-18-0.2
					C479.4,306.5,477.4,299.8,477.4,290.5z"/>
			</g>
			<g>
				<defs>
					<rect id="SVGID_00000005259638270649840840000011314003970040228245_" x="234.8" y="29.6" width="525.9" height="424.4"/>
				</defs>
				<clipPath id="SVGID_00000150802658370415769190000012537417202989130130_">
					<use xlink:href="#SVGID_00000005259638270649840840000011314003970040228245_"  style="overflow:visible;"/>
				</clipPath>
				<path style="clip-path:url(#SVGID_00000150802658370415769190000012537417202989130130_);fill:#110E09;" d="M379.5,302.4
					c-2.2,8.2-7,13.4-12.6,13.6s-10.9-4.9-13.3-13c-2.7-8.8-2.2-17.4,2-25.7c2.3-4.4,5.5-8.1,11.1-8c5.5,0.1,8.6,3.8,11,8.2
					c1.6,3.1,2.9,6.3,2.9,9.9C380.5,292.5,379.6,297.4,379.5,302.4z"/>
			</g>
			<g>
				<defs>
					<rect id="SVGID_00000079466534763714165410000006976084903302110607_" x="234.8" y="29.6" width="525.9" height="424.4"/>
				</defs>
				<clipPath id="SVGID_00000145037102430567884390000007458266030903009676_">
					<use xlink:href="#SVGID_00000079466534763714165410000006976084903302110607_"  style="overflow:visible;"/>
				</clipPath>
				<path style="clip-path:url(#SVGID_00000145037102430567884390000007458266030903009676_);fill:#F9F9FA;" d="M466.4,377.6
					c0.7,0,1.3-0.1,2-0.1c-1.1,2.9-2.2,5.9-3.4,8.8c-1.6,3.9-3.4,3.5-5.2,0.1c-0.1-0.1-0.2-0.3-0.3-0.4c-3.9-6.5-3.6-7.1,3.6-7.5
					C464.3,378.4,465.5,378.5,466.4,377.6z"/>
			</g>
			<g>
				<defs>
					<rect id="SVGID_00000109017924569608852720000016399163267798508943_" x="234.8" y="29.6" width="525.9" height="424.4"/>
				</defs>
				<clipPath id="SVGID_00000007393057916460919840000007677456194043612807_">
					<use xlink:href="#SVGID_00000109017924569608852720000016399163267798508943_"  style="overflow:visible;"/>
				</clipPath>
				<path style="clip-path:url(#SVGID_00000007393057916460919840000007677456194043612807_);fill:#F9F9FA;" d="M395.7,377.5
					c0.3-0.1,0.6-0.1,0.9,0c3.2,2,6.8,0.2,10.1,1.1c0.3,1.8-0.8,3.2-1.6,4.5c-1.2,2-1.5,5.6-4.3,5.3c-2.5-0.2-3-3.6-3.9-5.9
					C396.2,381.1,395.3,379.4,395.7,377.5z"/>
			</g>
			<g>
				<defs>
					<rect id="SVGID_00000129193554674401849560000010902626769841357459_" x="234.8" y="29.6" width="525.9" height="424.4"/>
				</defs>
				<clipPath id="SVGID_00000083057191623174039720000017912522397099799178_">
					<use xlink:href="#SVGID_00000129193554674401849560000010902626769841357459_"  style="overflow:visible;"/>
				</clipPath>
				<path style="clip-path:url(#SVGID_00000083057191623174039720000017912522397099799178_);fill:#0C0D0A;" d="M379.5,302.4
					c-1.8-5.1,0.3-10,1-14.9C381.5,292.5,381.3,297.5,379.5,302.4z"/>
			</g>
			<g>
				<defs>
					<rect id="SVGID_00000173869261226243406350000001205912717201408682_" x="234.8" y="29.6" width="525.9" height="424.4"/>
				</defs>
				<clipPath id="SVGID_00000074429637807019526000000013006112386988053937_">
					<use xlink:href="#SVGID_00000173869261226243406350000001205912717201408682_"  style="overflow:visible;"/>
				</clipPath>
				<path style="clip-path:url(#SVGID_00000074429637807019526000000013006112386988053937_);fill:#62656A;" d="M457.6,377.2
					c3-1.3,5.9-1.2,8.9-0.1C463.5,377.6,460.6,377.7,457.6,377.2z"/>
			</g>
			<g>
				<defs>
					<rect id="SVGID_00000119837866754199266660000000750852950112223383_" x="234.8" y="29.6" width="525.9" height="424.4"/>
				</defs>
				<clipPath id="SVGID_00000150102516230068574840000004227416122039779762_">
					<use xlink:href="#SVGID_00000119837866754199266660000000750852950112223383_"  style="overflow:visible;"/>
				</clipPath>
				<path style="clip-path:url(#SVGID_00000150102516230068574840000004227416122039779762_);fill:#606169;" d="M397.7,377.2
					c2.6-1.3,5.2-1.3,7.8,0C402.9,377.7,400.3,377.6,397.7,377.2z"/>
			</g>
			<g>
				<defs>
					<rect id="SVGID_00000153670160264877702810000007972371280380110521_" x="234.8" y="29.6" width="525.9" height="424.4"/>
				</defs>
				<clipPath id="SVGID_00000059292177848996390200000005774825413270732938_">
					<use xlink:href="#SVGID_00000153670160264877702810000007972371280380110521_"  style="overflow:visible;"/>
				</clipPath>
				<path style="clip-path:url(#SVGID_00000059292177848996390200000005774825413270732938_);fill:#004663;" d="M329.7,178
					c-2.2-20.1-2.3-38.6,8.9-55.3c2-3,3.2-3.3,4.8,0.3c4.7,9.9,10.1,19.4,17.6,27.5c1.1,1.2,1.5,2.1-0.3,3.1
					C349.6,159.9,339.7,167.8,329.7,178z"/>
			</g>
			<g>
				<defs>
					<rect id="SVGID_00000032620876104840571300000017362757243330221215_" x="234.8" y="29.6" width="525.9" height="424.4"/>
				</defs>
				<clipPath id="SVGID_00000015348734098255592180000016987441373681679280_">
					<use xlink:href="#SVGID_00000032620876104840571300000017362757243330221215_"  style="overflow:visible;"/>
				</clipPath>
				<path style="clip-path:url(#SVGID_00000015348734098255592180000016987441373681679280_);fill:#004663;" d="M532.3,159.9
					c-0.4,4.8-0.6,8.8-1,12.7c-0.2,2.2-1.1,3.2-3,1.2c-8.1-8.1-17.5-14.7-27.5-20.4c-1.5-0.8-3.1-1.7-1.1-3.7
					c7.6-7.7,12.3-17.2,16.9-26.8c1.6-3.3,2.6-3.6,4.8-0.4c6,8.9,9.2,18.6,9.9,29.2C531.7,154.9,532.1,157.8,532.3,159.9z"/>
			</g>
		</g>
		<g>
			<g>
				<defs>
					<rect id="SVGID_00000114063532482914613940000001002969433676887476_" x="234.8" y="29.6" width="525.9" height="424.4"/>
				</defs>
				<clipPath id="SVGID_00000013915777559527359430000007197275316074277304_">
					<use xlink:href="#SVGID_00000114063532482914613940000001002969433676887476_"  style="overflow:visible;"/>
				</clipPath>
			</g>
			<g>
				<defs>
					<rect id="SVGID_00000173139202346740973300000011416784182982306711_" x="234.8" y="29.6" width="525.9" height="424.4"/>
				</defs>
				<clipPath id="SVGID_00000182519573378821898730000005671107525632829578_">
					<use xlink:href="#SVGID_00000173139202346740973300000011416784182982306711_"  style="overflow:visible;"/>
				</clipPath>
			</g>
			<g>
				<defs>
					<rect id="SVGID_00000161603589710448697790000009897480372215631747_" x="234.8" y="29.6" width="525.9" height="424.4"/>
				</defs>
				<clipPath id="SVGID_00000129178164717402533890000017955395838780561028_">
					<use xlink:href="#SVGID_00000161603589710448697790000009897480372215631747_"  style="overflow:visible;"/>
				</clipPath>
			</g>
			<g>
				<defs>
					<rect id="SVGID_00000142151031676460538630000003044430490363579272_" x="234.8" y="29.6" width="525.9" height="424.4"/>
				</defs>
				<clipPath id="SVGID_00000155824745255950978310000014665152745313612694_">
					<use xlink:href="#SVGID_00000142151031676460538630000003044430490363579272_"  style="overflow:visible;"/>
				</clipPath>
			</g>
			<g>
				<defs>
					<rect id="SVGID_00000033366062808368844300000005121438009577324452_" x="234.8" y="29.6" width="525.9" height="424.4"/>
				</defs>
				<clipPath id="SVGID_00000138538126645807684300000001432048167658585521_">
					<use xlink:href="#SVGID_00000033366062808368844300000005121438009577324452_"  style="overflow:visible;"/>
				</clipPath>
			</g>
			<g>
				<defs>
					<rect id="SVGID_00000058576992202628281460000012648203208912210859_" x="234.8" y="29.6" width="525.9" height="424.4"/>
				</defs>
				<clipPath id="SVGID_00000157275743931900624400000002024543538060391809_">
					<use xlink:href="#SVGID_00000058576992202628281460000012648203208912210859_"  style="overflow:visible;"/>
				</clipPath>
			</g>
			<g>
				<defs>
					<rect id="SVGID_00000144300441057818343010000009274650881963456402_" x="234.8" y="29.6" width="525.9" height="424.4"/>
				</defs>
				<clipPath id="SVGID_00000154398477935439750970000007000277386103947175_">
					<use xlink:href="#SVGID_00000144300441057818343010000009274650881963456402_"  style="overflow:visible;"/>
				</clipPath>
			</g>
			<g>
				<defs>
					<rect id="SVGID_00000109752590777278963150000001490414606738432680_" x="234.8" y="29.6" width="525.9" height="424.4"/>
				</defs>
				<clipPath id="SVGID_00000016066478091365959740000017856708615968970645_">
					<use xlink:href="#SVGID_00000109752590777278963150000001490414606738432680_"  style="overflow:visible;"/>
				</clipPath>
			</g>
			<g>
				<defs>
					<rect id="SVGID_00000124855007568042057700000006415619695549539715_" x="234.8" y="29.6" width="525.9" height="424.4"/>
				</defs>
				<clipPath id="SVGID_00000132804294723549808920000017016280323007936395_">
					<use xlink:href="#SVGID_00000124855007568042057700000006415619695549539715_"  style="overflow:visible;"/>
				</clipPath>
			</g>
			<g>
				<defs>
					<rect id="SVGID_00000162338803530485152640000014078317210365935489_" x="234.8" y="29.6" width="525.9" height="424.4"/>
				</defs>
				<clipPath id="SVGID_00000091695355878698549990000003140777203373059750_">
					<use xlink:href="#SVGID_00000162338803530485152640000014078317210365935489_"  style="overflow:visible;"/>
				</clipPath>
			</g>
			<g>
				<defs>
					<rect id="SVGID_00000046318509570177804610000017156140248682837411_" x="234.8" y="29.6" width="525.9" height="424.4"/>
				</defs>
				<clipPath id="SVGID_00000106842655853023386130000008606713448560053121_">
					<use xlink:href="#SVGID_00000046318509570177804610000017156140248682837411_"  style="overflow:visible;"/>
				</clipPath>
			</g>
			<g>
				<defs>
					<rect id="SVGID_00000150806535094172701810000001397100169573823618_" x="234.8" y="29.6" width="525.9" height="424.4"/>
				</defs>
				<clipPath id="SVGID_00000029020122606217833690000006905321595286892928_">
					<use xlink:href="#SVGID_00000150806535094172701810000001397100169573823618_"  style="overflow:visible;"/>
				</clipPath>
			</g>
			<g>
				<defs>
					<rect id="SVGID_00000050650041554355072670000011109564495738573471_" x="234.8" y="29.6" width="525.9" height="424.4"/>
				</defs>
				<clipPath id="SVGID_00000075139083554946271260000005547635066014094262_">
					<use xlink:href="#SVGID_00000050650041554355072670000011109564495738573471_"  style="overflow:visible;"/>
				</clipPath>
			</g>
			<g>
				<defs>
					<rect id="SVGID_00000168114137498450332360000000845299513079286662_" x="234.8" y="29.6" width="525.9" height="424.4"/>
				</defs>
				<clipPath id="SVGID_00000078022594078622206880000014713535264018430346_">
					<use xlink:href="#SVGID_00000168114137498450332360000000845299513079286662_"  style="overflow:visible;"/>
				</clipPath>
			</g>
		</g>
	</g>
</g>
<rect x="228.3" y="436.6" class="st14" width="504.7" height="103.9"/>
<g class="st15">
	
		<image style="overflow:visible;opacity:0.39;" width="457" height="165" xlink:href="72F5673ADA950256.png"  transform="matrix(1 0 0 1 220 418.3)">
	</image>
	<g>
		<text transform="matrix(1 0 0 1 228.3295 503.5984)" class="st16 st17 st18">Louvetoo</text>
	</g>
</g>
<path d="M586.4,504.5"/>
<g>
	
		<image style="overflow:visible;opacity:0.39;" width="99" height="49" xlink:href="72F5673ADA950255.png"  transform="matrix(1 0 0 1 546 505.3)">
	</image>
	<g>
		<path class="st16" d="M554.9,511.8c0,0,3.9,19.5,37.1,18.9c33.2-0.7,30.9-18.9,30.9-18.9"/>
	</g>
</g>
<path class="st16" d="M366.9,300L366.9,300c-3.4,0-6.1-2.7-6.1-6.1l0,0c0-3.4,2.7-6.1,6.1-6.1l0,0c3.4,0,6.1,2.7,6.1,6.1l0,0
	C373,297.2,370.2,300,366.9,300z"/>
<path class="st16" d="M490.5,299.9L490.5,299.9c-3.3-0.6-5.5-3.8-4.9-7.1l0,0c0.6-3.3,3.8-5.5,7.1-4.9l0,0c3.3,0.6,5.5,3.8,4.9,7.1
	l0,0C497,298.2,493.8,300.5,490.5,299.9z"/>
</svg>
